<svg width="252" height="48" viewBox="0 0 252 48" fill="none" xmlns="http://www.w3.org/2000/svg">
<g clip-path="url(#clip0_208_132)">
<path d="M150 24C150 10.7452 139.255 0 126 0C112.745 0 102 10.7452 102 24C102 35.9789 110.776 45.908 122.25 47.7084V30.9375H116.156V24H122.25V18.7125C122.25 12.6975 125.833 9.375 131.315 9.375C133.94 9.375 136.688 9.84375 136.688 9.84375V15.75H133.661C130.68 15.75 129.75 17.6002 129.75 19.5V24H136.406L135.342 30.9375H129.75V47.7084C141.224 45.908 150 35.9789 150 24Z" fill="white"/>
</g>
<g clip-path="url(#clip1_208_132)">
<path d="M24 4.32187C30.4125 4.32187 31.1719 4.35 33.6938 4.4625C36.0375 4.56562 37.3031 4.95938 38.1469 5.2875C39.2625 5.71875 40.0688 6.24375 40.9031 7.07812C41.7469 7.92188 42.2625 8.71875 42.6938 9.83438C43.0219 10.6781 43.4156 11.9531 43.5188 14.2875C43.6313 16.8187 43.6594 17.5781 43.6594 23.9813C43.6594 30.3938 43.6313 31.1531 43.5188 33.675C43.4156 36.0188 43.0219 37.2844 42.6938 38.1281C42.2625 39.2438 41.7375 40.05 40.9031 40.8844C40.0594 41.7281 39.2625 42.2438 38.1469 42.675C37.3031 43.0031 36.0281 43.3969 33.6938 43.5C31.1625 43.6125 30.4031 43.6406 24 43.6406C17.5875 43.6406 16.8281 43.6125 14.3063 43.5C11.9625 43.3969 10.6969 43.0031 9.85313 42.675C8.7375 42.2438 7.93125 41.7188 7.09688 40.8844C6.25313 40.0406 5.7375 39.2438 5.30625 38.1281C4.97813 37.2844 4.58438 36.0094 4.48125 33.675C4.36875 31.1438 4.34063 30.3844 4.34063 23.9813C4.34063 17.5688 4.36875 16.8094 4.48125 14.2875C4.58438 11.9437 4.97813 10.6781 5.30625 9.83438C5.7375 8.71875 6.2625 7.9125 7.09688 7.07812C7.94063 6.23438 8.7375 5.71875 9.85313 5.2875C10.6969 4.95938 11.9719 4.56562 14.3063 4.4625C16.8281 4.35 17.5875 4.32187 24 4.32187ZM24 0C17.4844 0 16.6688 0.028125 14.1094 0.140625C11.5594 0.253125 9.80625 0.665625 8.2875 1.25625C6.70312 1.875 5.3625 2.69062 4.03125 4.03125C2.69063 5.3625 1.875 6.70313 1.25625 8.27813C0.665625 9.80625 0.253125 11.55 0.140625 14.1C0.028125 16.6687 0 17.4844 0 24C0 30.5156 0.028125 31.3312 0.140625 33.8906C0.253125 36.4406 0.665625 38.1938 1.25625 39.7125C1.875 41.2969 2.69063 42.6375 4.03125 43.9688C5.3625 45.3 6.70313 46.125 8.27813 46.7344C9.80625 47.325 11.55 47.7375 14.1 47.85C16.6594 47.9625 17.475 47.9906 23.9906 47.9906C30.5063 47.9906 31.3219 47.9625 33.8813 47.85C36.4313 47.7375 38.1844 47.325 39.7031 46.7344C41.2781 46.125 42.6188 45.3 43.95 43.9688C45.2812 42.6375 46.1063 41.2969 46.7156 39.7219C47.3063 38.1938 47.7188 36.45 47.8313 33.9C47.9438 31.3406 47.9719 30.525 47.9719 24.0094C47.9719 17.4938 47.9438 16.6781 47.8313 14.1188C47.7188 11.5688 47.3063 9.81563 46.7156 8.29688C46.125 6.70312 45.3094 5.3625 43.9688 4.03125C42.6375 2.7 41.2969 1.875 39.7219 1.26562C38.1938 0.675 36.45 0.2625 33.9 0.15C31.3313 0.028125 30.5156 0 24 0Z" fill="white"/>
<path d="M24 11.6719C17.1938 11.6719 11.6719 17.1938 11.6719 24C11.6719 30.8062 17.1938 36.3281 24 36.3281C30.8062 36.3281 36.3281 30.8062 36.3281 24C36.3281 17.1938 30.8062 11.6719 24 11.6719ZM24 31.9969C19.5844 31.9969 16.0031 28.4156 16.0031 24C16.0031 19.5844 19.5844 16.0031 24 16.0031C28.4156 16.0031 31.9969 19.5844 31.9969 24C31.9969 28.4156 28.4156 31.9969 24 31.9969Z" fill="white"/>
<path d="M39.6937 11.1843C39.6937 12.778 38.4 14.0624 36.8156 14.0624C35.2219 14.0624 33.9375 12.7687 33.9375 11.1843C33.9375 9.59053 35.2313 8.30615 36.8156 8.30615C38.4 8.30615 39.6937 9.5999 39.6937 11.1843Z" fill="white"/>
</g>
<path d="M251.522 14.4001C251.522 14.4001 251.053 11.0907 249.609 9.6376C247.781 7.7251 245.738 7.71572 244.8 7.60322C238.088 7.11572 228.009 7.11572 228.009 7.11572H227.991C227.991 7.11572 217.913 7.11572 211.2 7.60322C210.263 7.71572 208.219 7.7251 206.391 9.6376C204.947 11.0907 204.487 14.4001 204.487 14.4001C204.487 14.4001 204 18.2907 204 22.172V25.8095C204 29.6907 204.478 33.5813 204.478 33.5813C204.478 33.5813 204.947 36.8907 206.381 38.3438C208.209 40.2563 210.609 40.1907 211.678 40.397C215.522 40.7626 228 40.8751 228 40.8751C228 40.8751 238.088 40.8563 244.8 40.3782C245.738 40.2657 247.781 40.2563 249.609 38.3438C251.053 36.8907 251.522 33.5813 251.522 33.5813C251.522 33.5813 252 29.7001 252 25.8095V22.172C252 18.2907 251.522 14.4001 251.522 14.4001ZM223.041 30.2251V16.7345L236.006 23.5032L223.041 30.2251Z" fill="white"/>
<defs>
<clipPath id="clip0_208_132">
<rect width="48" height="48" fill="white" transform="translate(102)"/>
</clipPath>
<clipPath id="clip1_208_132">
<rect width="48" height="48" fill="white"/>
</clipPath>
</defs>
</svg>
