<?xml version="1.0" standalone="no"?>
<!DOCTYPE svg PUBLIC "-//W3C//DTD SVG 20010904//EN"
 "http://www.w3.org/TR/2001/REC-SVG-20010904/DTD/svg10.dtd">
<svg version="1.0" xmlns="http://www.w3.org/2000/svg"
 width="512.000000pt" height="512.000000pt" viewBox="0 0 512.000000 512.000000"
 preserveAspectRatio="xMidYMid meet">
<metadata>
Created by potrace 1.14, written by Peter Selinger 2001-2017
</metadata>
<g transform="translate(0.000000,512.000000) scale(0.100000,-0.100000)"
fill="#000000" stroke="none">
<path d="M2365 5114 c-16 -2 -73 -9 -125 -15 -544 -62 -1089 -328 -1490 -729
-401 -401 -651 -910 -732 -1490 -17 -125 -17 -515 0 -640 81 -580 331 -1089
732 -1490 401 -401 910 -651 1490 -732 125 -17 515 -17 640 0 580 81 1087 330
1490 732 399 398 651 910 732 1490 17 125 17 515 0 640 -81 580 -331 1089
-732 1490 -394 393 -892 642 -1455 726 -95 14 -486 27 -550 18z m650 -751 c77
-40 125 -114 125 -190 -1 -21 -11 -92 -24 -159 -18 -93 -21 -133 -14 -175 15
-97 20 -187 9 -161 -6 12 -12 22 -13 22 -2 0 -3 -73 -3 -163 l0 -164 270 1
c256 1 274 0 340 -22 39 -13 82 -31 96 -40 15 -9 53 -32 85 -51 33 -19 61 -38
64 -41 3 -4 23 -19 46 -33 47 -29 146 -124 189 -182 17 -21 57 -71 91 -110
130 -150 194 -264 194 -345 0 -49 -34 -141 -66 -180 -14 -16 -41 -35 -60 -42
-24 -8 -37 -20 -41 -38 -3 -14 -16 -45 -28 -70 -37 -74 -68 -187 -62 -228 3
-21 31 -78 64 -132 139 -221 156 -255 155 -319 -2 -116 -56 -258 -140 -366
l-38 -50 -75 1 c-84 1 -145 17 -172 45 -10 11 -28 19 -40 19 -12 0 -37 13 -55
30 -18 16 -44 33 -58 36 -17 4 -24 13 -24 30 0 24 17 44 64 77 41 28 26 68
-55 144 -37 36 -87 78 -109 94 -37 27 -47 29 -78 22 -35 -8 -36 -9 -58 -98
-18 -73 -21 -107 -17 -177 10 -155 -12 -173 -235 -187 -75 -5 -139 -8 -142 -6
-4 3 -151 12 -222 15 -5 0 -8 9 -8 20 0 13 21 36 55 63 34 26 55 50 55 62 0
42 -37 172 -62 215 l-25 45 -129 1 c-71 0 -147 6 -169 12 -22 6 -42 8 -46 4
-18 -21 -61 -117 -83 -187 -83 -263 -122 -340 -182 -357 -84 -25 -415 -8 -481
25 -51 24 -17 86 75 140 l57 33 3 70 c2 39 -2 83 -7 97 -13 34 -45 35 -67 2
-8 -13 -37 -34 -62 -46 -55 -26 -59 -31 -73 -84 -18 -69 -52 -144 -74 -165
-12 -12 -53 -32 -90 -46 -66 -23 -76 -24 -219 -18 -218 9 -283 42 -274 138 3
28 8 33 68 53 36 12 83 22 106 22 49 1 60 13 98 98 22 51 26 71 21 110 -4 28
0 79 9 123 26 130 27 152 17 260 -9 90 -7 124 10 238 l20 132 -85 81 c-60 57
-94 98 -116 141 -16 34 -30 67 -30 74 0 11 -93 75 -146 99 -37 17 -116 123
-164 218 -44 88 -46 90 -95 106 -27 8 -90 36 -139 61 -104 52 -137 91 -169
199 -31 108 -36 168 -17 199 35 57 53 65 175 77 69 7 121 17 132 26 23 18 47
32 163 91 l94 49 106 -1 c70 -1 123 3 160 14 68 20 103 20 138 2 44 -22 65
-52 58 -79 -7 -30 4 -39 64 -56 25 -7 81 -28 125 -46 72 -30 96 -34 235 -44
85 -6 188 -18 229 -27 l75 -16 30 35 c35 40 83 67 120 67 20 0 41 20 99 93 74
92 97 127 97 145 0 5 -28 17 -62 27 -77 21 -125 45 -203 100 -33 23 -72 45
-86 48 -35 9 -89 71 -89 102 0 14 9 30 20 37 21 13 27 38 10 38 -5 0 -10 5
-10 10 0 22 22 7 56 -39 45 -60 88 -80 254 -120 170 -40 211 -45 234 -28 25
19 14 33 -31 42 -21 4 -52 13 -69 20 l-32 13 2 79 c1 66 4 81 24 101 18 18 22
33 22 80 0 64 14 92 64 123 43 28 192 23 251 -8z"/>
</g>
</svg>
